<svg width="40" height="40" viewBox="0 0 40 40" fill="none" xmlns="http://www.w3.org/2000/svg">
  <!-- Outer hexagon frame -->
  <path d="M20 2L35 11V29L20 38L5 29V11L20 2Z" stroke="url(#gradient)" stroke-width="1.5" fill="none"/>

  <!-- Neural network nodes -->
  <circle cx="20" cy="12" r="1.5" fill="url(#gradient)" opacity="0.9"/>
  <circle cx="14" cy="18" r="1.5" fill="url(#gradient)" opacity="0.9"/>
  <circle cx="26" cy="18" r="1.5" fill="url(#gradient)" opacity="0.9"/>
  <circle cx="17" cy="26" r="1.5" fill="url(#gradient)" opacity="0.9"/>
  <circle cx="23" cy="26" r="1.5" fill="url(#gradient)" opacity="0.9"/>

  <!-- Neural connections -->
  <line x1="20" y1="12" x2="14" y2="18" stroke="url(#gradient)" stroke-width="1" opacity="0.4"/>
  <line x1="20" y1="12" x2="26" y2="18" stroke="url(#gradient)" stroke-width="1" opacity="0.4"/>
  <line x1="14" y1="18" x2="17" y2="26" stroke="url(#gradient)" stroke-width="1" opacity="0.4"/>
  <line x1="26" y1="18" x2="23" y2="26" stroke="url(#gradient)" stroke-width="1" opacity="0.4"/>
  <line x1="14" y1="18" x2="26" y2="18" stroke="url(#gradient)" stroke-width="1" opacity="0.3"/>
  <line x1="17" y1="26" x2="23" y2="26" stroke="url(#gradient)" stroke-width="1" opacity="0.3"/>

  <!-- Central AI core -->
  <circle cx="20" cy="20" r="2" fill="url(#gradient)"/>
  <circle cx="20" cy="20" r="3" stroke="url(#gradient)" stroke-width="0.5" fill="none" opacity="0.5"/>

  <!-- Gradient definition -->
  <defs>
    <linearGradient id="gradient" x1="0%" y1="0%" x2="100%" y2="100%">
      <stop offset="0%" style="stop-color:#3B82F6;stop-opacity:1" />
      <stop offset="100%" style="stop-color:#8B5CF6;stop-opacity:1" />
    </linearGradient>
  </defs>
</svg>
